<svg width="94" height="24" viewBox="0 0 94 24" fill="none" xmlns="http://www.w3.org/2000/svg">
<g clip-path="url(#clip0_640_3153)">
<mask id="mask0_640_3153" style="mask-type:luminance" maskUnits="userSpaceOnUse" x="0" y="0" width="94" height="24">
<path d="M94 0H0V24H94V0Z" fill="white"/>
</mask>
<g mask="url(#mask0_640_3153)">
<path d="M65.7205 18.7833C65.3137 18.7942 64.909 18.7202 64.5318 18.5658C64.1547 18.4114 63.8132 18.1801 63.5288 17.8862C63.2443 17.5924 63.0231 17.2424 62.8789 16.8582C62.7347 16.474 62.6707 16.0639 62.6908 15.6536C62.683 15.2454 62.7559 14.8397 62.9052 14.4602C63.0546 14.0808 63.2774 13.7352 63.5606 13.4437C63.8438 13.1522 64.1817 12.9206 64.5547 12.7626C64.9276 12.6045 65.328 12.5231 65.7324 12.5231C66.1369 12.5231 66.5373 12.6045 66.9102 12.7626C67.2831 12.9206 67.6211 13.1522 67.9043 13.4437C68.1875 13.7352 68.4103 14.0808 68.5597 14.4602C68.709 14.8397 68.7819 15.2454 68.7741 15.6536C68.7916 16.0653 68.7249 16.4763 68.5783 16.8609C68.4316 17.2454 68.2081 17.5954 67.9217 17.889C67.6352 18.1826 67.292 18.4136 66.9133 18.5674C66.5346 18.7213 66.1285 18.7948 65.7205 18.7833ZM87.9871 18.8547C87.5718 18.8664 87.1587 18.7908 86.7739 18.6328C86.3891 18.4748 86.0411 18.2378 85.7518 17.9368C85.4626 17.6359 85.2384 17.2775 85.0936 16.8844C84.9488 16.4914 84.8866 16.0722 84.9107 15.6536C84.8909 15.2371 84.9564 14.821 85.1031 14.4312C85.2497 14.0415 85.4744 13.6864 85.7631 13.3882C86.0518 13.09 86.3983 12.8551 86.7809 12.6982C87.1636 12.5413 87.5742 12.4657 87.9871 12.4761C88.4024 12.4646 88.8157 12.5391 89.2015 12.6951C89.5872 12.851 89.9372 13.085 90.2299 13.3827C90.5227 13.6804 90.7519 14.0355 90.9035 14.4261C91.055 14.8166 91.1258 15.2344 91.1113 15.6536C91.1302 16.075 91.0628 16.4959 90.9131 16.8898C90.7634 17.2837 90.5347 17.6421 90.2414 17.9426C89.9481 18.2432 89.5965 18.4793 89.2086 18.6362C88.8206 18.7932 88.4048 18.8675 87.9871 18.8547ZM40.9637 18.8547C40.5474 18.8665 40.1331 18.7912 39.747 18.6335C39.3609 18.4759 39.0112 18.2393 38.72 17.9387C38.4288 17.638 38.2024 17.2798 38.055 16.8866C37.9076 16.4933 37.8424 16.0735 37.8634 15.6536C37.8579 15.239 37.934 14.8274 38.0873 14.4427C38.2406 14.058 38.4681 13.7079 38.7566 13.4127C39.045 13.1175 39.3887 12.8832 39.7677 12.7232C40.1466 12.5632 40.5533 12.4808 40.964 12.4808C41.3748 12.4808 41.7814 12.5632 42.1604 12.7232C42.5393 12.8832 42.883 13.1175 43.1715 13.4127C43.4599 13.7079 43.6874 14.058 43.8407 14.4427C43.9941 14.8274 44.0702 15.239 44.0646 15.6536C44.0857 16.0738 44.0204 16.4938 43.8728 16.8873C43.7252 17.2807 43.4985 17.6391 43.207 17.9398C42.9155 18.2405 42.5656 18.477 42.1791 18.6344C41.7926 18.7919 41.378 18.8669 40.9614 18.8547M17.499 14.608C17.6217 13.9267 17.9892 13.3152 18.5311 12.8906C19.073 12.4661 19.7511 12.2584 20.4353 12.3076C21.0969 12.2787 21.7458 12.4975 22.2573 12.9221C22.7689 13.3467 23.107 13.9471 23.2068 14.608H17.499ZM20.6466 21.6244C21.5126 21.6718 22.3776 21.5145 23.1727 21.1651C23.9679 20.8156 24.6713 20.2837 25.227 19.6115L23.2068 17.8568C22.9094 18.2366 22.5256 18.5383 22.0881 18.7364C21.6505 18.9346 21.1721 19.0233 20.6933 18.995C18.9786 18.995 17.9218 18.2836 17.5458 16.8608H25.9784C26.05 16.4621 26.0893 16.0581 26.0958 15.653C26.0958 12.2857 23.7236 9.70118 20.4353 9.70118C19.6529 9.67517 18.8736 9.81117 18.1453 10.1008C17.417 10.3904 16.7552 10.8276 16.2006 11.3852C15.6461 11.9429 15.2105 12.6093 14.9208 13.3434C14.6311 14.0775 14.4934 14.8637 14.5161 15.6536C14.5161 19.068 16.8883 21.629 20.6466 21.629M87.447 21.629C88.1446 21.6669 88.841 21.536 89.4784 21.2473C90.1157 20.9586 90.6756 20.5204 91.1113 19.9692V21.3207H94.0002V10.0106H91.1113V11.3385C90.6707 10.795 90.1096 10.3636 89.4733 10.0794C88.8371 9.79519 88.1435 9.66601 87.4487 9.70233C84.5125 9.70233 82.0229 12.3105 82.0229 15.6542C82.0229 19.0473 84.5125 21.6296 87.4487 21.6296M40.4254 21.6296C41.1195 21.6674 41.8126 21.5363 42.4461 21.2475C43.0797 20.9587 43.6353 20.5205 44.0663 19.9698V21.3213H46.9552V10.0106H44.064V11.3385C43.628 10.7952 43.0709 10.3637 42.4381 10.0793C41.8053 9.79494 41.1148 9.66576 40.4231 9.70233C37.4635 9.70233 34.9973 12.334 34.9973 15.6542C34.9973 19.0214 37.4635 21.6296 40.4231 21.6296M48.4558 21.3213H51.3447V15.2033C51.3447 13.3301 52.3315 12.4054 53.811 12.4054C54.1136 12.3878 54.4165 12.4367 54.6986 12.5486C54.9808 12.6606 55.2356 12.8329 55.4454 13.0538C55.6553 13.2747 55.8152 13.5388 55.9143 13.8281C56.0133 14.1173 56.0491 14.4248 56.0191 14.7294V21.3207H58.9069V14.3734C58.9069 11.4806 57.122 9.70233 54.6792 9.70233C53.1524 9.70233 52.0483 10.224 51.3436 11.2908V10.0106H48.4564L48.4558 21.3213ZM65.7176 21.6296C66.8849 21.6272 68.0254 21.2757 68.995 20.6195C69.9646 19.9634 70.7199 19.0319 71.1655 17.9427C71.6111 16.8536 71.7271 15.6555 71.4987 14.4999C71.2704 13.3443 70.7081 12.2828 69.8827 11.4495C69.0573 10.6163 68.0058 10.0486 66.861 9.81809C65.7163 9.58761 64.5295 9.70469 63.4506 10.1545C62.3717 10.6044 61.449 11.3669 60.799 12.3457C60.149 13.3245 59.8008 14.4758 59.7985 15.6542C59.7913 16.4409 59.9394 17.2212 60.2343 17.9495C60.5292 18.6777 60.965 19.3394 61.5161 19.8957C62.0671 20.452 62.7225 20.8919 63.4439 21.1896C64.1654 21.4873 64.9383 21.6369 65.7176 21.6296ZM75.1131 21.3213H78.566C79.5054 15.7726 81.5956 11.813 84.0624 9.72649L82.0423 7.97182C79.091 10.5369 77.2182 14.1403 76.8045 18.0495L74.0329 10.0112H70.862L75.1131 21.3213ZM29.8774 4.81733H26.9879V21.323H29.8769L29.8774 4.81733ZM34.0362 4.81733H31.1706V21.323H34.0362V4.81733ZM13.0378 22.5308C12.333 22.4836 12.0043 21.6537 12.0043 20.6329C12.0043 19.5183 12.7324 17.1247 13.0144 15.9854C13.2964 14.8237 13.4132 12.9741 12.3803 11.9073C16.301 10.3189 22.1045 4.88864 22.8542 3.70334C23.5823 2.51746 23.7469 1.02389 22.7135 0.264743C21.6801 -0.494405 20.012 0.478109 19.0281 1.92452C16.3033 5.88416 14.6591 7.82862 12.8036 9.46481C11.3475 10.7214 10.6427 10.745 9.93803 10.8399C10.0554 10.6501 12.6156 6.42937 13.6257 5.10144C14.822 3.51298 13.3437 2.92004 11.9109 3.91613C10.2143 5.10888 8.44094 6.18616 6.60245 7.14078C1.71502 9.67818 0.540308 10.8641 0.540308 12.3818C0.535385 12.5782 0.569266 12.7737 0.639975 12.9567C0.710683 13.1398 0.816803 13.3068 0.952141 13.4481C1.08748 13.5893 1.24932 13.7019 1.42823 13.7793C1.60714 13.8567 1.79953 13.8974 1.99418 13.8989C3.92032 13.8989 5.79918 10.4609 6.73861 9.58558C7.09125 9.25374 7.93497 8.51875 8.24204 8.51875C8.3594 8.51875 8.43004 8.59007 8.43004 8.80343C8.43004 9.46711 7.1619 11.3408 5.18847 13.4745C2.3491 16.602 0.000235666 17.835 0.000235666 19.8272C-0.00922394 20.0963 0.0367628 20.3646 0.135286 20.6149C0.233809 20.8652 0.382724 21.0921 0.572608 21.2813C0.762491 21.4705 0.98921 21.6179 1.23842 21.714C1.48762 21.8102 1.7539 21.8531 2.02038 21.8401C4.2046 21.8401 5.68467 18.8759 6.55346 17.406C6.9061 16.813 8.85561 13.1616 9.25439 12.3789C9.70047 12.5923 9.95911 13.069 9.81839 14.0387C9.55975 15.7933 8.00961 17.9034 8.00961 20.844C8.00961 23.2387 10.2172 23.9973 11.1099 23.9973C11.9075 23.9973 13.0115 23.6965 13.2708 22.8592C13.2835 22.8214 13.2872 22.7812 13.2815 22.7418C13.2758 22.7023 13.2608 22.6648 13.2379 22.6324C13.2149 22.5999 13.1846 22.5735 13.1495 22.5552C13.1144 22.5369 13.0755 22.5274 13.036 22.5273" fill="#F60B45"/>
</g>
</g>
<defs>
<clipPath id="clip0_640_3153">
<rect width="94" height="24" fill="white"/>
</clipPath>
</defs>
</svg>
